<svg xmlns="http://www.w3.org/2000/svg" viewBox="0 0 400 500"><defs><style>.cls-1{fill:#d3909d;}.cls-2{fill:#f9f9f9;}</style></defs><title>bg-u2-pink</title><g id="Layer_2" data-name="Layer 2"><path class="cls-1" d="M214.93,11.11s0,.05,0,.07l0,0ZM385.29,240.05c-.4-9.38-.7-18.83-2-28.1-1.6-11.22-3.56-22.42-7.36-33.24-3.47-9.86-5.74-20.14-10.69-29.48-3.38-6.38-6.43-12.93-9.63-19.42C350,118.4,342.66,108.1,334.8,98.13a228.05,228.05,0,0,0-19.24-21,150.28,150.28,0,0,0-25.51-20.32c-7.64-4.83-15.8-8.85-23.72-13.25a16.66,16.66,0,0,1-1.71-1.22,7.71,7.71,0,0,1,1.46-1.5,7.28,7.28,0,0,0,4-4.62c1.16-4.41-.91-9.1-5.42-12.6a25.72,25.72,0,0,0-15.34-5.22c-6.12-.18-12.4.53-18-2.9a10.9,10.9,0,0,0-3.2-.81l-.28.78c2.54,1.5,5.09,3,7.91,4.68-8.39,3.18-16.67,5.67-25.5,1.56-5.13-2.38-7.35-7-5.67-12.06,1-2.95,2.91-4.61,5.71-4.83,2.11-.17,5.43,1.84,6.52,4,1.35,2.64.92,5.33-1.13,7s-4.84,1.32-7-.61a3.43,3.43,0,0,1-.67-4.64,3.7,3.7,0,0,1,5.55-.39,10.77,10.77,0,0,0,1.42,1c-.6-3.18-2.35-4.42-5.32-3.75a5.27,5.27,0,0,0-4.2,6.32,7.29,7.29,0,0,0,6.77,5.77c3,.25,7.17-2.32,8.18-5.06C222.56,8.47,217.74,2.92,212,2s-9.05,1.53-10.77,7c-1.75,5.66.69,12.49,5.88,15.33a23.28,23.28,0,0,0,15.36,2.93c4.31-.75,8.56-1.84,12.84-2.75a3.49,3.49,0,0,1,.95.08l.58.77a18.12,18.12,0,0,0-2.66,1.91c-.42.42-.79,1.55-.56,1.85a3.21,3.21,0,0,0,2.17,1.24,10.88,10.88,0,0,0,3.41-.95,26.69,26.69,0,0,1,11.89-1.68c1.07.09,2.14.25,3.21.36.05-.25.1-.51.16-.76L247.55,25c5.37-3.74,16.32-1.31,18.53,6.84a10.38,10.38,0,0,1-.37,4.82,2.45,2.45,0,0,1-3.51,1.68,4.24,4.24,0,0,1-2-2.81c-.39-1.93.81-2.79,2.75-2.84a5.68,5.68,0,0,0,1.85-.82,6.52,6.52,0,0,0-1.81-1.3c-3.11-.89-6.45,2.43-6,5.88s.44,3.3-2.58,2.25c-15.56-5.45-31.44-9-48-9.42a178.58,178.58,0,0,0-26.06.83,165.27,165.27,0,0,0-35.47,8.31c-3.73,1.32-3.63,1.35-3.52-2.74,0-2-.3-3.87-2.58-4.7-2-.73-3.64-.36-5.22,1.55.84.09,1.38.2,1.9.2,1.86,0,3,.74,3,2.76,0,1.58-.56,2.79-2.25,2.93a3.4,3.4,0,0,1-4-2.62,7.92,7.92,0,0,1,3.21-8.52c2-1.31,4.19-2.23,6.23-3.45,2.63-1.59,5.3-1.07,8-.26.52.15.89.82,1.34,1.26a9.37,9.37,0,0,1-1.5.79c-1.79.57-3.61,1.09-5.41,1.63.08.25.16.5.23.77,1.79-.11,3.56-.21,5.34-.34,4.34-.32,8.23,1.53,12.31,2.49.76.18,2.11.11,2.38-.34a3.56,3.56,0,0,0-.21-2.53,13.26,13.26,0,0,0-1.69-2.4c1.28.22,2.07.33,2.83.48,7.44,1.51,14.72,3.53,22.43.81,6.36-2.24,10.73-7.93,10.1-14.66-.45-4.86-3.36-8.75-7.08-9.5a11.56,11.56,0,0,0-12.24,6,7.75,7.75,0,0,0,2.28,9.6c3.2,2.44,8.15,2.47,10.6-.21,1.55-1.7,2.5-3.82,1.63-6.32a5.53,5.53,0,0,0-4.83-3.91c-2.79-.4-4.66,1.49-4.2,4.41A14.21,14.21,0,0,1,185,10.16a3.62,3.62,0,0,1,5.17-.29,4,4,0,0,1-.09,5.51c-2.3,2.37-7.06,1.64-8.55-1.32s-.14-6.3,3.09-8.14S191.26,4.7,193,7.53a10,10,0,0,1-4.3,14.25c-8.37,3.79-16.49,1.67-24.58-1-1.25-.4-1.12-1,0-1.58,1.48-.73,3-1.39,4.42-2.2a14.46,14.46,0,0,0,1.86-1.57,21,21,0,0,0-2.63,0c-.63.07-1.2.46-1.83.57-4.58.81-9.14,2.06-13.74,2.25a40.93,40.93,0,0,0-13.67,2.45,16.5,16.5,0,0,0-9.43,9.1c-1.89,4.65-2,6.77,3.25,10.88,2.18,1.69,2.1,1.64-.24,2.93-8.27,4.54-16.71,8.8-24.68,13.81A153.72,153.72,0,0,0,78.64,81.21c-6.76,7-13,14.63-19.13,22.25a141.07,141.07,0,0,0-9.79,14.26c-3.62,5.83-7.15,11.74-10.27,17.85A198.85,198.85,0,0,0,30,156.31c-3.56,9.52-6.49,19.27-9.49,29-1.13,3.68-1.67,7.53-2.46,11.31a274.8,274.8,0,0,0-5.21,44.93,250.33,250.33,0,0,0,2,44.11c1.62,12,3.33,24,7,35.59C25,331.19,27.21,341.46,32,350.87c3.49,6.86,6.47,14,10.06,20.79,3,5.66,6.36,11.13,9.84,16.51,3.08,4.75,6.51,9.26,9.81,13.87a167.13,167.13,0,0,0,21.75,24.34c3.27,3.08,6.73,5.95,10.12,8.88A69.85,69.85,0,0,0,99.33,440c5.35,3.68,10.7,7.37,16.23,10.77a115.24,115.24,0,0,0,13.24,7.18c4,1.81,4.47,2.39,1.34,5.47a7.53,7.53,0,0,0-1,9.37,23.5,23.5,0,0,0,18.27,10.82c5.18.43,10.37,1,15.53,1.69,2,.27,3.83,1.22,5.75,1.78.41.12.93-.17,1.39-.27-.2-.38-.31-.92-.62-1.11-1.09-.67-2.31-1.12-3.36-1.83a21.54,21.54,0,0,1-2.49-2.2l2.62-1.08c.52-.19,1-.36,1.58-.51,6.06-1.71,12.11-2.88,18.31-.57s8.69,5.42,8.39,10.54c-.28,4.74-3.16,7.46-7.37,7-3.38-.42-6.73-4.32-6.25-7.3.54-3.24,3.61-5.1,7.12-4.28a3.64,3.64,0,0,1,3.08,3.72,5.17,5.17,0,0,1-2,3.49c-1.49,1-3.2.5-4.33-1a9.47,9.47,0,0,1-.82-1.73q-.3.32-.63.63a4.73,4.73,0,0,0,5.68,4.31,5.47,5.47,0,0,0,4.28-5.92c-.46-3.18-2.12-5.09-5-5.8a9.1,9.1,0,0,0-9.79,3.94c-1.3,1.82-1.19,5.49.31,7.64a26,26,0,0,0,2,2.26c3.52,4,11.71,4.14,14.6.32,4.11-5.43,2.92-14.21-2.38-18.47-3.64-2.92-7.84-3.72-12.31-4-5.21-.33-10.21.73-15.21,1.93a13.09,13.09,0,0,1-2.08.21c.21-.63.47-1.24.63-1.89s.64-1.77.33-2.23-1.42-.64-2.2-.67a10.36,10.36,0,0,0-2.13.44c-3.86.66-7.72,1.39-11.6,1.89a18.35,18.35,0,0,1-4.13-.43c-.07.27-.14.55-.22.82l7.07,2.29c-6.5,3.67-15.52.38-18-5.18a12,12,0,0,1-.81-5.63c.13-1.9,1.8-2.76,3.61-2.65,2,.11,2.4,1.82,2.49,3.4.1,1.84-1.25,2.2-2.77,2.32a7.75,7.75,0,0,0-1.83.66c.63.46,1.22,1.17,1.92,1.35,3.45.8,5.83-1.36,5.8-5.34,0-1.78.11-2.57,2.23-1.89,5.4,1.74,10.85,3.34,16.31,4.86a139,139,0,0,0,38.28,5.06,162.32,162.32,0,0,0,26.51-2.22c9.61-1.67,19-4.49,28.47-7.1,3.87-1.07,3.77-1.44,4.1,2.54a4.19,4.19,0,0,0,4.73,4.13c.82-.09,1.56-.91,2.33-1.38a12.28,12.28,0,0,1-2.07-.79c-.94-.57-2.47-1.22-2.54-2a4,4,0,0,1,1.57-3.07,3.38,3.38,0,0,1,3.19-.09,5.92,5.92,0,0,1,2.05,3.86,9.36,9.36,0,0,1-5.51,8.33c-1.55.76-3.16,1.41-4.73,2.15-3.18,1.5-6,.73-8.95-1.23l7.09-2.62c-.07-.26-.13-.51-.2-.76A22.46,22.46,0,0,1,240,472.79a13.85,13.85,0,0,0-4-1.08,3,3,0,0,0-2.26,1c-.28.35.14,1.45.48,2.09a18.29,18.29,0,0,0,2,2.46,25,25,0,0,1-3.35-.56,40.17,40.17,0,0,0-16.3-1.86c-6.31.61-12.17,2.4-14.83,9.14A13,13,0,0,0,203,496.62c2.42,3.61,6.16,3.75,9.87,3,5.28-1,8.64-5.58,8-10.27-.8-5.85-7.67-8.77-13.29-5.07-2.1,1.4-2.76,5-1.65,7.54a5.67,5.67,0,0,0,5.75,2.91c2.22-.28,3.25-1.69,3-4.14a16.77,16.77,0,0,1-1.72,1.75,3.07,3.07,0,0,1-4.44-.63,4.85,4.85,0,0,1-.59-3.94c.62-2,3.69-3,5.87-2.47a5.45,5.45,0,0,1,4,4.79c.12,2.35-1.92,5.14-4.61,6.34a6.78,6.78,0,0,1-7-1c-3.45-3.38-2.36-12,1.94-14.26,8.66-4.62,17.34-3.4,26,.16.35.15.58.6.86.92a7,7,0,0,1-1,.84c-1.44.77-2.93,1.46-4.36,2.27-.33.18-.48.68-.72,1a3.75,3.75,0,0,0,1.34.16c2.48-.73,4.89-1.87,7.42-2.24a110.65,110.65,0,0,1,11.23-.74c7.21-.27,13.59-2.1,18.55-7.95,4.09-4.83,4.23-9.7-.31-13.91-1.25-1.15-1.06-2,.31-2.78,6.33-3.49,12.89-6.6,19-10.5a241.11,241.11,0,0,0,22.29-15.92,151.74,151.74,0,0,0,15.62-15.44c5.36-5.85,10.41-12,15.35-18.24a126.21,126.21,0,0,0,8.14-11.72c3.55-5.66,7.06-11.36,10.17-17.26a192.33,192.33,0,0,0,9.28-19.65c3.76-9.65,7.24-19.45,10.19-29.39,4-13.39,5.66-27.28,7.12-41.15.64-6,.72-12,.83-18C385.45,254.45,385.59,247.24,385.29,240.05ZM162.44,477.22l-.11.17-.09-.19ZM370.15,300.78a108.06,108.06,0,0,1-2.53,11.85c-3.27,10.59-6.5,21.23-10.37,31.61a182,182,0,0,1-9.56,20.41,157.36,157.36,0,0,1-10.45,17.8A283.87,283.87,0,0,1,318.3,407a182.64,182.64,0,0,1-19.88,18.95,163,163,0,0,1-29.18,19.48c-15,7.82-30.73,13.38-47.52,15.58-7.16.93-14.37,1.46-21.55,2.17a162.49,162.49,0,0,1-43.93-6.68,132.51,132.51,0,0,1-34.5-15.6c-8.17-5.35-16.39-10.74-23.91-16.93a154.14,154.14,0,0,1-18.75-18.54,285.25,285.25,0,0,1-17.59-23.22,135.85,135.85,0,0,1-9.12-15.69c-3.69-7.17-6.92-14.57-10.49-21.8-4.83-9.8-7.11-20.4-10.21-30.78-4.38-14.65-6.33-29.62-6.93-44.8-.44-10.93-.81-21.9-.44-32.83a194.91,194.91,0,0,1,6.09-43.58c2.75-10.27,5.94-20.45,9.57-30.44a208.31,208.31,0,0,1,9.72-21.57,138.4,138.4,0,0,1,9.64-17c6.19-8.95,12.58-17.84,19.59-26.14A169.24,169.24,0,0,1,97.09,79.73a165.13,165.13,0,0,1,31.1-21.54A151.28,151.28,0,0,1,170.47,43a140.63,140.63,0,0,1,65.3,1.69A149.74,149.74,0,0,1,276.64,62c6.82,4.24,13.32,9,19.87,13.71a110.84,110.84,0,0,1,18.34,16.83c3.57,4,7.2,8.07,10.55,12.29,3.46,4.37,6.79,8.86,9.85,13.53,3.63,5.49,7.16,11.08,10.28,16.87,3.64,6.77,6.62,13.88,10.16,20.7,4.71,9.06,6.69,19,10,28.53C369.66,196,371.08,208,373,220a156.83,156.83,0,0,1,1.27,16.22c.29,6.35.51,12.72.45,19.07A252.26,252.26,0,0,1,370.15,300.78Z"/><path class="cls-2" d="M374.67,255.24a252.26,252.26,0,0,1-4.52,45.54,108.06,108.06,0,0,1-2.53,11.85c-3.27,10.59-6.5,21.23-10.37,31.61a182,182,0,0,1-9.56,20.41,157.36,157.36,0,0,1-10.45,17.8A283.87,283.87,0,0,1,318.3,407a182.64,182.64,0,0,1-19.88,18.95,163,163,0,0,1-29.18,19.48c-15,7.82-30.73,13.38-47.52,15.58-7.16.93-14.37,1.46-21.55,2.17a162.49,162.49,0,0,1-43.93-6.68,132.51,132.51,0,0,1-34.5-15.6c-8.17-5.35-16.39-10.74-23.91-16.93a154.14,154.14,0,0,1-18.75-18.54,285.25,285.25,0,0,1-17.59-23.22,135.85,135.85,0,0,1-9.12-15.69c-3.69-7.17-6.92-14.57-10.49-21.8-4.83-9.8-7.11-20.4-10.21-30.78-4.38-14.65-6.33-29.62-6.93-44.8-.44-10.93-.81-21.9-.44-32.83a194.91,194.91,0,0,1,6.09-43.58c2.75-10.27,5.94-20.45,9.57-30.44a208.31,208.31,0,0,1,9.72-21.57,138.4,138.4,0,0,1,9.64-17c6.19-8.95,12.58-17.84,19.59-26.14A169.24,169.24,0,0,1,97.09,79.73a165.13,165.13,0,0,1,31.1-21.54A151.28,151.28,0,0,1,170.47,43a140.63,140.63,0,0,1,65.3,1.69A149.74,149.74,0,0,1,276.64,62c6.82,4.24,13.32,9,19.87,13.71a110.84,110.84,0,0,1,18.34,16.83c3.57,4,7.2,8.07,10.55,12.29,3.46,4.37,6.79,8.86,9.85,13.53,3.63,5.49,7.16,11.08,10.28,16.87,3.64,6.77,6.62,13.88,10.16,20.7,4.71,9.06,6.69,19,10,28.53C369.66,196,371.08,208,373,220a156.83,156.83,0,0,1,1.27,16.22C374.51,242.52,374.73,248.89,374.67,255.24Z"/><path class="cls-1" d="M198.65,47.27c-94.15,0-170.48,91.28-170.48,203.87S104.5,455,198.65,455s170.48-91.28,170.48-203.87S292.8,47.27,198.65,47.27Zm0,402.65c-91.8,0-166.21-89-166.21-198.85S106.82,52.21,198.62,52.21s166.21,89,166.21,198.86S290.41,449.92,198.62,449.92Z"/></g></svg>